<svg width="24" height="24" viewBox="0 0 24 24" fill="none" xmlns="http://www.w3.org/2000/svg">
  <defs>
    <linearGradient id="keyGradient" x1="0%" y1="0%" x2="100%" y2="100%">
      <stop offset="0%" style="stop-color:#4F46E5;stop-opacity:1" />
      <stop offset="100%" style="stop-color:#7C3AED;stop-opacity:1" />
    </linearGradient>
    <linearGradient id="plusGradient" x1="0%" y1="0%" x2="100%" y2="100%">
      <stop offset="0%" style="stop-color:#10B981;stop-opacity:1" />
      <stop offset="100%" style="stop-color:#059669;stop-opacity:1" />
    </linearGradient>
  </defs>
  
  <!-- Key body -->
  <path d="M8 11C8 9.89543 8.89543 9 10 9H18C19.1046 9 20 9.89543 20 11V13C20 14.1046 19.1046 15 18 15H10C8.89543 15 8 14.1046 8 13V11Z" fill="url(#keyGradient)" stroke="currentColor" stroke-width="0.5"/>
  
  <!-- Key teeth -->
  <rect x="18" y="10" width="2" height="1.5" fill="url(#keyGradient)"/>
  <rect x="18" y="12.5" width="1.5" height="1.5" fill="url(#keyGradient)"/>
  
  <!-- Key hole -->
  <circle cx="14" cy="12" r="1.5" fill="white" opacity="0.9"/>
  <circle cx="14" cy="12" r="0.8" fill="url(#keyGradient)"/>
  
  <!-- Plus symbol in a circle -->
  <circle cx="6" cy="6" r="4" fill="url(#plusGradient)" stroke="white" stroke-width="1"/>
  <path d="M6 3V9M3 6H9" stroke="white" stroke-width="1.5" stroke-linecap="round"/>
  
  <!-- Sparkle effects -->
  <path d="M15 6L15.5 7L16.5 6.5L15.5 6L15 6Z" fill="#F59E0B" opacity="0.8"/>
  <path d="M4 16L4.3 16.7L5 16.3L4.3 16L4 16Z" fill="#F59E0B" opacity="0.6"/>
  <path d="M19 18L19.2 18.4L19.6 18.2L19.2 18L19 18Z" fill="#F59E0B" opacity="0.7"/>
</svg>
